<svg width="44" height="44" viewBox="0 0 44 44" fill="none" xmlns="http://www.w3.org/2000/svg">
<g clip-path="url(#clip0_2008_1224)">
<circle cx="21.9994" cy="22.0004" r="21.2143" fill="#EAF0E3"/>
<path d="M18.557 24.7309L15.6787 24.4631L15.043 24.4038L15.0532 24.3936L15.6869 24.4549L18.557 24.7309Z" fill="#354D77"/>
<path d="M7.87464 31.4502V31.6587C7.85011 31.5892 7.84807 31.5177 7.87464 31.4502Z" fill="#354D77"/>
<path d="M12.191 27.9082V28.1167C12.1665 28.0472 12.1645 27.9757 12.191 27.9082Z" fill="#354D77"/>
<path d="M12.5887 24.1543L13.2224 24.2156L13.2061 24.232L12.5703 24.1727L12.5887 24.1543Z" fill="#354D77"/>
<path d="M18.557 24.7309L15.6787 24.4631L15.043 24.4038L15.0532 24.3936L15.6869 24.4549L18.557 24.7309Z" fill="#354D77"/>
<path d="M12.191 27.9082V28.1167C12.1665 28.0472 12.1645 27.9757 12.191 27.9082Z" fill="#354D77"/>
<path d="M18.5579 24.7301L15.6797 24.4623L15.6879 24.4541L18.5579 24.7301Z" fill="#354D77"/>
<path d="M12.191 27.9072V28.1157C12.1665 28.0462 12.1645 27.9747 12.191 27.9072Z" fill="#354D77"/>
<path d="M29.2812 19.3022L30.4996 18.1084H30.5016L29.2812 19.3022Z" fill="#354D77"/>
<path d="M36.508 18.6895L36.4671 18.6854V18.9021L32.6015 22.6757L25.9578 29.164L25.3282 29.1027L24.8437 29.577L24.8335 29.5872L24.2427 30.1637L21.6384 32.7067L8.62896 31.4495V29.3337L9.87797 29.4543L21.6384 30.5889H21.6547C21.7835 30.6032 21.9041 30.5664 21.9838 30.4887L22.6564 29.8305L23.0795 29.4175L23.0857 29.4114L23.5742 28.933L22.9875 28.8779L12.9484 27.9068V25.7911L13.5637 25.8504L14.1974 25.9117L24.9602 26.9502L25.5449 27.0074L25.9578 27.0462H25.9741C26.1029 27.0605 26.2235 27.0237 26.3012 26.9461L31.2196 22.1381L32.1477 21.2304L34.9053 18.5341L36.4671 17.0071L36.8371 16.6452C37.0518 16.4347 36.8576 16.0729 36.508 16.0402L33.7769 15.7765L32.9674 15.6988L33.9241 14.7625C34.1388 14.552 33.9446 14.1922 33.595 14.1574L33.5541 14.1533V14.37L32.2642 15.6313H32.2622L29.7948 18.0415L28.5723 19.2332L26.105 21.6454L23.0448 24.632L16.1844 23.9697L15.5507 23.9084H15.5486L13.7191 23.7305L13.0833 23.6692L10.0354 23.3748V21.2591L11.2844 21.3797L15.0539 21.7435L15.6876 21.8049L17.5193 21.9807H17.5213L18.153 22.042H18.155L23.0448 22.5142H23.0611C23.1899 22.5285 23.3105 22.4917 23.3882 22.414L24.349 21.4757L26.8143 19.0636L28.0347 17.8718L30.5 15.4596L31.9923 14.0021L33.5541 12.475L33.9241 12.1132C34.1388 11.9027 33.9446 11.5429 33.595 11.5081L20.2135 10.2162C20.0868 10.2039 19.9662 10.2407 19.8865 10.3184L9.35261 20.6192C9.26062 20.7092 9.24222 20.8257 9.28106 20.934V23.5833C9.33012 23.7285 9.47935 23.8552 9.67968 23.8736L12.5886 24.1537L13.2223 24.215L13.206 24.2313L12.5702 24.1721L11.8363 24.8916L7.94619 28.6939C7.8542 28.7838 7.8358 28.9003 7.87464 29.0087V31.658C7.9237 31.8031 8.07293 31.9299 8.27326 31.9483L21.6547 33.2402C21.7835 33.2545 21.9041 33.2157 21.9838 33.138L24.8887 30.2986L25.5449 29.6567L25.9741 29.6976C26.1029 29.7098 26.2235 29.6731 26.3012 29.5954L36.8371 19.2946C37.0518 19.084 36.8576 18.7242 36.508 18.6895ZM20.4037 12.103C20.4588 12.0478 20.5447 12.0212 20.6347 12.0294L30.0687 12.9411C30.314 12.9657 30.451 13.2191 30.2997 13.3684L29.8602 13.7977L28.37 15.2552L28.2269 15.3942C28.0265 15.5904 27.7526 15.6865 27.4766 15.6599L22.4663 15.1755L18.063 14.7503L17.7646 14.7216C17.7503 14.7196 17.738 14.7216 17.7237 14.7216L20.4037 12.103ZM15.0539 24.3928L15.6876 24.4542L18.5577 24.7301L15.6795 24.4623L15.0437 24.4031L15.0539 24.3928ZM12.1941 27.9068V28.1154C12.1695 28.0459 12.1675 27.9743 12.1941 27.9068Z" fill="#ADC591"/>
<path d="M18.557 24.7299L15.6787 24.4621L15.043 24.4028L15.0532 24.3926L15.6869 24.4539L18.557 24.7299Z" fill="#354D77"/>
<path d="M29.2812 19.3022L30.4996 18.1084H30.5016L29.2812 19.3022Z" fill="#354D77"/>
<path d="M9.28089 23.375V23.5835C9.25636 23.514 9.25432 23.4425 9.28089 23.375Z" fill="#354D77"/>
</g>
<defs>
<clipPath id="clip0_2008_1224">
<rect width="44" height="44" fill="white"/>
</clipPath>
</defs>
</svg>
