<svg width="68" height="68" viewBox="0 0 68 68" fill="none" xmlns="http://www.w3.org/2000/svg">
<g clip-path="url(#clip0_2001_787)">
<circle cx="33.9984" cy="34" r="33.2093" fill="#F3F7EF"/>
<path d="M19.1243 19.2905C20.9917 17.4244 23.1662 15.9586 25.5871 14.9357C27.9327 13.9445 30.4156 13.4108 32.9759 13.3469L32.5901 15.7399C32.456 16.5724 33.3524 17.1841 34.0797 16.7568L41.9769 12.1153C42.6322 11.7304 42.6322 10.7835 41.9769 10.3979L34.079 5.75646C33.3517 5.32913 32.4554 5.94153 32.5894 6.77332L32.9773 9.17918C29.8553 9.24378 26.8249 9.88848 23.9621 11.0985C21.0442 12.3314 18.4246 14.0965 16.1753 16.3443C13.9261 18.592 12.1597 21.2098 10.926 24.1258C9.64783 27.1454 9 30.3521 9 33.6557C9 36.5481 9.50035 39.3799 10.4869 42.0738C11.2816 44.2428 12.3745 46.2765 13.7423 48.1366C14.1894 48.7443 15.0581 48.8479 15.6406 48.3674L16.8245 47.3909C17.3633 46.9468 17.4602 46.1608 17.0488 45.5961C15.939 44.0732 15.0507 42.411 14.4022 40.6411C13.584 38.4082 13.1692 36.0582 13.1692 33.6557C13.1692 30.912 13.7066 28.2517 14.7659 25.7483C15.7895 23.3297 17.2555 21.1566 19.1236 19.2898L19.1243 19.2905Z" fill="#ADC591"/>
<path d="M56.512 25.2381C55.7174 23.0691 54.6244 21.0354 53.2567 19.1753C52.8095 18.5676 51.9408 18.464 51.3583 18.9445L50.1744 19.9209C49.6357 20.3651 49.5387 21.1511 49.9502 21.7157C51.06 23.2387 51.9482 24.9009 52.5967 26.6708C53.4149 28.9037 53.8298 31.2537 53.8298 33.6562C53.8298 36.3999 53.2924 39.0601 52.2331 41.5636C51.2095 43.9822 49.7434 46.1552 47.8753 48.022C46.0079 49.8882 43.8334 51.3539 41.4125 52.3768C39.0669 53.3681 36.584 53.9018 34.0237 53.9657L34.4095 51.5726C34.5436 50.7402 33.6472 50.1284 32.9199 50.5558L25.0227 55.1972C24.3674 55.5822 24.3674 56.529 25.0227 56.9146L32.9199 61.5561C33.6472 61.9834 34.5436 61.371 34.4095 60.5392L34.0217 58.1334C37.1436 58.0688 40.1741 57.4241 43.0368 56.2141C45.9547 54.9812 48.5744 53.216 50.8236 50.9683C53.0728 48.7206 54.8392 46.1027 56.0729 43.1868C57.3511 40.1672 57.9989 36.9605 57.9989 33.6562C57.9989 30.7638 57.4986 27.9319 56.512 25.2381Z" fill="#ADC591"/>
<path d="M45.5168 28.3937L30.9735 42.9257C30.4341 43.4648 29.5586 43.4648 29.0192 42.9257L20.4405 34.3528C19.9105 33.8218 19.9105 32.9618 20.4405 32.4315L21.8621 31.0109C22.3927 30.4806 23.2534 30.4806 23.7847 31.0109L29.9963 37.2183L42.1725 25.0511C42.7039 24.5201 43.5638 24.5201 44.0952 25.0511L45.5168 26.471C46.0467 27.002 46.0467 27.862 45.5168 28.393V28.3937Z" fill="#ADC591"/>
</g>
<defs>
<clipPath id="clip0_2001_787">
<rect width="68" height="68" fill="white"/>
</clipPath>
</defs>
</svg>
